<svg width="14" height="13" viewBox="0 0 14 13" fill="none" xmlns="http://www.w3.org/2000/svg">
<path d="M7 0C3.14 0 0 2.91571 0 6.5C0 10.0843 3.14 13 7 13C10.86 13 14 10.0843 14 6.5C14 2.91571 10.86 0 7 0ZM7.455 10.3564C7.123 10.4084 6.461 10.5365 6.125 10.5625C5.841 10.5848 5.572 10.4325 5.409 10.2161C5.32825 10.1092 5.27646 9.98577 5.25801 9.85629C5.23956 9.72682 5.25499 9.59512 5.303 9.47236L6.626 6.09421H5.25C5.249 5.38943 5.817 4.87221 6.545 4.6735C6.892 4.57879 7.539 4.44879 7.875 4.46921C8.077 4.48036 8.428 4.59829 8.591 4.81557C8.67158 4.9224 8.72328 5.04568 8.74173 5.17498C8.76018 5.30427 8.74484 5.4358 8.697 5.55843L7.374 8.93843H8.75C8.75 9.64136 8.202 10.2421 7.455 10.3573V10.3564ZM7.875 4.0625C7.64294 4.0625 7.42038 3.9769 7.25628 3.82452C7.09219 3.67215 7 3.46549 7 3.25C7 3.03451 7.09219 2.82785 7.25628 2.67548C7.42038 2.5231 7.64294 2.4375 7.875 2.4375C8.10706 2.4375 8.32962 2.5231 8.49372 2.67548C8.65781 2.82785 8.75 3.03451 8.75 3.25C8.75 3.46549 8.65781 3.67215 8.49372 3.82452C8.32962 3.9769 8.10706 4.0625 7.875 4.0625Z" fill="#353F42"/>
</svg>
